<?xml version="1.0" encoding="UTF-8" standalone="no"?>
<svg width="400" height="80" viewBox="0 0 400 80" fill="none" xmlns="http://www.w3.org/2000/svg">
  <!-- TASK -->
  <path d="M20 15H60V25H45V65H35V25H20V15Z" fill="#3B82F6"/>
  <path d="M65 15H105V25H90V65H80V25H65V15Z" fill="#3B82F6"/>
  <path d="M110 15H150V25H130V35H145V45H130V65H110V55H120V45H105V35H120V25H110V15Z" fill="#3B82F6"/>
  <path d="M155 15H195V25H175V35H190V45H175V55H195V65H155V15Z" fill="#3B82F6"/>
  
  <!-- NEST -->
  <path d="M215 15H225V35H245V15H255V65H245V45H225V65H215V15Z" fill="#60A5FA"/>
  <path d="M265 15H305V25H285V35H300V45H285V55H305V65H265V15Z" fill="#60A5FA"/>
  <path d="M315 15H355V25H335V35H350V45H335V55H355V65H315V15Z" fill="#60A5FA"/>
  <path d="M365 15H405V25H385V65H375V25H365V15Z" fill="#60A5FA"/>
</svg>
