<?xml version="1.0" encoding="UTF-8" standalone="no"?>
<svg width="400" height="80" viewBox="0 0 400 80" fill="none" xmlns="http://www.w3.org/2000/svg">
  <!-- TASK NEST in the exact same style as the original TTFEHEET -->
  <path d="M20 20H60V35H45V70H30V35H20V20Z" fill="#4285F4"/>
  <path d="M70 20H110V35H95V70H80V35H70V20Z" fill="#4285F4"/>
  <path d="M120 20H155V35H140V40H155V55H140V70H120V55H135V40H120V20Z" fill="#4285F4"/>
  <path d="M165 20H200V35H185V70H165V20Z" fill="#4285F4"/>
  
  <path d="M220 20H235V40H255V20H270V70H255V50H235V70H220V20Z" fill="#4285F4"/>
  <path d="M280 20H315V35H300V40H315V55H300V70H280V20Z" fill="#4285F4"/>
  <path d="M325 20H360V35H345V40H360V55H345V70H325V55H340V40H325V20Z" fill="#4285F4"/>
  <path d="M370 20H410V35H395V70H380V35H370V20Z" fill="#4285F4"/>
</svg>
